<svg width="140" height="24" viewBox="0 0 140 24" fill="none" xmlns="http://www.w3.org/2000/svg">
<path d="M0.968 18V0.48H6.392L10.4 10.32H10.856L14.816 0.48H20.336V18H16.448V3.048L17 3.096L12.368 14.448H8.624L3.968 3.096L4.568 3.048V18H0.968ZM23.9049 23.208V19.944H26.6409C27.0569 19.944 27.4089 19.888 27.6969 19.776C27.9849 19.68 28.2169 19.512 28.3929 19.272C28.5689 19.032 28.7129 18.704 28.8249 18.288L32.0649 4.848H35.7129L32.0409 19.056C31.7849 20.08 31.4249 20.896 30.9609 21.504C30.5129 22.112 29.9049 22.544 29.1369 22.8C28.3849 23.072 27.4249 23.208 26.2569 23.208H23.9049ZM28.0329 17.712V14.712H30.8169V17.712H28.0329ZM26.4489 17.712L22.4169 4.848H26.2809L30.0969 17.712H26.4489Z" fill="black"/>
<path d="M36.2964 18L42.0804 0.48H48.4404L54.4404 18H50.3604L45.5124 3.192L46.7604 3.696H43.6644L44.9604 3.192L40.2324 18H36.2964ZM40.6884 13.656L41.8884 10.392H48.7524L49.9764 13.656H40.6884ZM61.7229 18.432C60.7949 18.432 59.9469 18.264 59.1789 17.928C58.4269 17.592 57.7709 17.128 57.2109 16.536C56.6509 15.928 56.2189 15.216 55.9149 14.4C55.6269 13.584 55.4829 12.704 55.4829 11.76V11.208C55.4829 10.264 55.6189 9.384 55.8909 8.568C56.1789 7.752 56.5869 7.04 57.1149 6.432C57.6589 5.808 58.3069 5.328 59.0589 4.992C59.8109 4.64 60.6509 4.464 61.5789 4.464C62.6349 4.464 63.5469 4.696 64.3149 5.16C65.0829 5.608 65.6829 6.28 66.1149 7.176C66.5469 8.056 66.7869 9.144 66.8349 10.44L65.8269 9.504V0.48H69.6909V18H66.6429V12.552H67.1709C67.1229 13.8 66.8589 14.864 66.3789 15.744C65.9149 16.624 65.2829 17.296 64.4829 17.76C63.6829 18.208 62.7629 18.432 61.7229 18.432ZM62.6829 15.216C63.2749 15.216 63.8109 15.088 64.2909 14.832C64.7869 14.56 65.1789 14.168 65.4669 13.656C65.7709 13.144 65.9229 12.528 65.9229 11.808V10.92C65.9229 10.216 65.7709 9.624 65.4669 9.144C65.1629 8.664 64.7629 8.296 64.2669 8.04C63.7709 7.784 63.2349 7.656 62.6589 7.656C62.0189 7.656 61.4429 7.824 60.9309 8.16C60.4349 8.48 60.0429 8.928 59.7549 9.504C59.4669 10.064 59.3229 10.72 59.3229 11.472C59.3229 12.24 59.4669 12.904 59.7549 13.464C60.0429 14.024 60.4429 14.456 60.9549 14.76C61.4669 15.064 62.0429 15.216 62.6829 15.216ZM78.5979 18.432C77.6699 18.432 76.8219 18.264 76.0539 17.928C75.3019 17.592 74.6459 17.128 74.0859 16.536C73.5259 15.928 73.0939 15.216 72.7899 14.4C72.5019 13.584 72.3579 12.704 72.3579 11.76V11.208C72.3579 10.264 72.4939 9.384 72.7659 8.568C73.0539 7.752 73.4619 7.04 73.9899 6.432C74.5339 5.808 75.1819 5.328 75.9339 4.992C76.6859 4.64 77.5259 4.464 78.4539 4.464C79.5099 4.464 80.4219 4.696 81.1899 5.16C81.9579 5.608 82.5579 6.28 82.9899 7.176C83.4219 8.056 83.6619 9.144 83.7099 10.44L82.7019 9.504V0.48H86.5659V18H83.5179V12.552H84.0459C83.9979 13.8 83.7339 14.864 83.2539 15.744C82.7899 16.624 82.1579 17.296 81.3579 17.76C80.5579 18.208 79.6379 18.432 78.5979 18.432ZM79.5579 15.216C80.1499 15.216 80.6859 15.088 81.1659 14.832C81.6619 14.56 82.0539 14.168 82.3419 13.656C82.6459 13.144 82.7979 12.528 82.7979 11.808V10.92C82.7979 10.216 82.6459 9.624 82.3419 9.144C82.0379 8.664 81.6379 8.296 81.1419 8.04C80.6459 7.784 80.1099 7.656 79.5339 7.656C78.8939 7.656 78.3179 7.824 77.8059 8.16C77.3099 8.48 76.9179 8.928 76.6299 9.504C76.3419 10.064 76.1979 10.72 76.1979 11.472C76.1979 12.24 76.3419 12.904 76.6299 13.464C76.9179 14.024 77.3179 14.456 77.8299 14.76C78.3419 15.064 78.9179 15.216 79.5579 15.216ZM90.0489 18V4.848H93.0969V10.488H93.0249C93.0249 8.632 93.4169 7.2 94.2009 6.192C95.0009 5.184 96.1529 4.68 97.6569 4.68H98.1609V7.992H97.2009C96.1449 7.992 95.3289 8.28 94.7529 8.856C94.1769 9.416 93.8889 10.232 93.8889 11.304V18H90.0489ZM106.104 18.456C104.984 18.456 103.992 18.264 103.128 17.88C102.28 17.496 101.568 16.984 100.992 16.344C100.432 15.688 100 14.96 99.6961 14.16C99.4081 13.344 99.2641 12.512 99.2641 11.664V11.184C99.2641 10.304 99.4081 9.464 99.6961 8.664C100 7.848 100.432 7.12 100.992 6.48C101.552 5.84 102.248 5.336 103.08 4.968C103.928 4.584 104.888 4.392 105.96 4.392C107.368 4.392 108.552 4.712 109.512 5.352C110.488 5.976 111.232 6.8 111.744 7.824C112.256 8.832 112.512 9.936 112.512 11.136V12.432H100.872V10.248H110.184L108.936 11.256C108.936 10.472 108.824 9.8 108.6 9.24C108.376 8.68 108.04 8.256 107.592 7.968C107.16 7.664 106.616 7.512 105.96 7.512C105.288 7.512 104.72 7.664 104.256 7.968C103.792 8.272 103.44 8.72 103.2 9.312C102.96 9.888 102.84 10.6 102.84 11.448C102.84 12.232 102.952 12.92 103.176 13.512C103.4 14.088 103.752 14.536 104.232 14.856C104.712 15.176 105.336 15.336 106.104 15.336C106.808 15.336 107.384 15.2 107.832 14.928C108.28 14.656 108.584 14.32 108.744 13.92H112.272C112.08 14.8 111.704 15.584 111.144 16.272C110.584 16.96 109.88 17.496 109.032 17.88C108.184 18.264 107.208 18.456 106.104 18.456ZM120.049 18.408C118.177 18.408 116.713 18.024 115.657 17.256C114.601 16.488 114.041 15.408 113.977 14.016H117.385C117.449 14.432 117.697 14.808 118.129 15.144C118.577 15.464 119.241 15.624 120.121 15.624C120.793 15.624 121.345 15.512 121.777 15.288C122.225 15.048 122.449 14.712 122.449 14.28C122.449 13.896 122.281 13.592 121.945 13.368C121.609 13.128 121.009 12.96 120.145 12.864L119.113 12.768C117.529 12.608 116.337 12.168 115.537 11.448C114.753 10.728 114.361 9.808 114.361 8.688C114.361 7.76 114.593 6.984 115.057 6.36C115.521 5.736 116.161 5.264 116.977 4.944C117.809 4.624 118.753 4.464 119.809 4.464C121.505 4.464 122.873 4.84 123.913 5.592C124.953 6.328 125.497 7.4 125.545 8.808H122.137C122.073 8.376 121.849 8.016 121.465 7.728C121.081 7.424 120.513 7.272 119.761 7.272C119.169 7.272 118.697 7.384 118.345 7.608C117.993 7.832 117.817 8.136 117.817 8.52C117.817 8.888 117.969 9.168 118.273 9.36C118.577 9.552 119.073 9.688 119.761 9.768L120.793 9.864C122.409 10.04 123.665 10.488 124.561 11.208C125.457 11.928 125.905 12.896 125.905 14.112C125.905 14.992 125.665 15.76 125.185 16.416C124.705 17.056 124.025 17.552 123.145 17.904C122.265 18.24 121.233 18.408 120.049 18.408ZM133.385 18.408C131.513 18.408 130.049 18.024 128.993 17.256C127.937 16.488 127.377 15.408 127.313 14.016H130.721C130.785 14.432 131.033 14.808 131.465 15.144C131.913 15.464 132.577 15.624 133.457 15.624C134.129 15.624 134.681 15.512 135.113 15.288C135.561 15.048 135.785 14.712 135.785 14.28C135.785 13.896 135.617 13.592 135.281 13.368C134.945 13.128 134.345 12.96 133.481 12.864L132.449 12.768C130.865 12.608 129.673 12.168 128.873 11.448C128.089 10.728 127.697 9.808 127.697 8.688C127.697 7.76 127.929 6.984 128.393 6.36C128.857 5.736 129.497 5.264 130.313 4.944C131.145 4.624 132.089 4.464 133.145 4.464C134.841 4.464 136.209 4.84 137.249 5.592C138.289 6.328 138.833 7.4 138.881 8.808H135.473C135.409 8.376 135.185 8.016 134.801 7.728C134.417 7.424 133.849 7.272 133.097 7.272C132.505 7.272 132.033 7.384 131.681 7.608C131.329 7.832 131.153 8.136 131.153 8.52C131.153 8.888 131.305 9.168 131.609 9.36C131.913 9.552 132.409 9.688 133.097 9.768L134.129 9.864C135.745 10.04 137.001 10.488 137.897 11.208C138.793 11.928 139.241 12.896 139.241 14.112C139.241 14.992 139.001 15.76 138.521 16.416C138.041 17.056 137.361 17.552 136.481 17.904C135.601 18.24 134.569 18.408 133.385 18.408Z" fill="#5061FC"/>
</svg>
